<?xml version="1.0" encoding="UTF-8" standalone="no"?>
<!DOCTYPE svg PUBLIC "-//W3C//DTD SVG 1.1//EN"
 "http://www.w3.org/Graphics/SVG/1.1/DTD/svg11.dtd">
<!-- Generated by graphviz version 2.40.1 (20161225.0304)
 -->
<!-- Title: dependencies Pages: 1 -->
<svg width="504pt" height="284pt"
 viewBox="0.00 0.00 504.00 284.00" xmlns="http://www.w3.org/2000/svg" xmlns:xlink="http://www.w3.org/1999/xlink">
<g id="graph0" class="graph" transform="scale(1 1) rotate(0) translate(4 280)">
<title>dependencies</title>
<polygon fill="#ffffff" stroke="transparent" points="-4,4 -4,-280 500,-280 500,4 -4,4"/>
<text text-anchor="start" x="227.0091" y="-42.4" font-family="sans-serif" font-weight="bold" font-size="14.00" fill="#000000">Legend</text>
<polygon fill="#ffffb3" stroke="transparent" points="14,-10 14,-30 34,-30 34,-10 14,-10"/>
<text text-anchor="start" x="37.629" y="-15.4" font-family="sans-serif" font-size="14.00" fill="#000000"> &#160;Declarations</text>
<polygon fill="#8dd3c7" stroke="transparent" points="127,-10 127,-30 147,-30 147,-10 127,-10"/>
<text text-anchor="start" x="150.7251" y="-15.4" font-family="sans-serif" font-size="14.00" fill="#000000"> &#160;Module</text>
<polygon fill="#80b1d3" stroke="transparent" points="213,-10 213,-30 233,-30 233,-10 213,-10"/>
<text text-anchor="start" x="236.7812" y="-15.4" font-family="sans-serif" font-size="14.00" fill="#000000"> &#160;Bootstrap</text>
<polygon fill="#fdb462" stroke="transparent" points="310,-10 310,-30 330,-30 330,-10 310,-10"/>
<text text-anchor="start" x="333.6732" y="-15.4" font-family="sans-serif" font-size="14.00" fill="#000000"> &#160;Providers</text>
<polygon fill="#fb8072" stroke="transparent" points="406,-10 406,-30 426,-30 426,-10 406,-10"/>
<text text-anchor="start" x="429.7258" y="-15.4" font-family="sans-serif" font-size="14.00" fill="#000000"> &#160;Exports</text>
<g id="clust1" class="cluster">
<title>cluster_SharedModule</title>
<polygon fill="none" stroke="#000000" stroke-dasharray="1,5" points="65,-70 65,-268 431,-268 431,-70 65,-70"/>
</g>
<g id="clust2" class="cluster">
<title>cluster_SharedModule_declarations</title>
<polygon fill="none" stroke="#000000" points="77,-78 77,-130 419,-130 419,-78 77,-78"/>
</g>
<g id="clust6" class="cluster">
<title>cluster_SharedModule_exports</title>
<polygon fill="none" stroke="#000000" points="73,-208 73,-260 423,-260 423,-208 73,-208"/>
</g>
<!-- CustomizeFormComponent -->
<g id="node1" class="node">
<title>CustomizeFormComponent</title>
<polygon fill="#ffffb3" stroke="#000000" points="410.549,-122 239.451,-122 239.451,-86 410.549,-86 410.549,-122"/>
<text text-anchor="middle" x="325" y="-99.8" font-family="Times,serif" font-size="14.00" fill="#000000">CustomizeFormComponent</text>
</g>
<!-- SharedModule -->
<g id="node3" class="node">
<title>SharedModule</title>
<polygon fill="#8dd3c7" stroke="#000000" points="203.4231,-187 200.4231,-191 179.4231,-191 176.4231,-187 104.5769,-187 104.5769,-151 203.4231,-151 203.4231,-187"/>
<text text-anchor="middle" x="154" y="-164.8" font-family="Times,serif" font-size="14.00" fill="#000000">SharedModule</text>
</g>
<!-- CustomizeFormComponent&#45;&gt;SharedModule -->
<g id="edge1" class="edge">
<title>CustomizeFormComponent&#45;&gt;SharedModule</title>
<path fill="none" stroke="#000000" d="M353.6747,-122.0225C353.6747,-139.3734 353.6747,-163 353.6747,-163 353.6747,-163 213.3578,-163 213.3578,-163"/>
<polygon fill="#000000" stroke="#000000" points="213.3578,-159.5001 203.3578,-163 213.3578,-166.5001 213.3578,-159.5001"/>
</g>
<!-- InputTextComponent -->
<g id="node2" class="node">
<title>InputTextComponent</title>
<polygon fill="#ffffb3" stroke="#000000" points="221.0422,-122 84.9578,-122 84.9578,-86 221.0422,-86 221.0422,-122"/>
<text text-anchor="middle" x="153" y="-99.8" font-family="Times,serif" font-size="14.00" fill="#000000">InputTextComponent</text>
</g>
<!-- InputTextComponent&#45;&gt;SharedModule -->
<g id="edge2" class="edge">
<title>InputTextComponent&#45;&gt;SharedModule</title>
<path fill="none" stroke="#000000" d="M154,-122.1061C154,-122.1061 154,-140.991 154,-140.991"/>
<polygon fill="#000000" stroke="#000000" points="150.5001,-140.9909 154,-150.991 157.5001,-140.991 150.5001,-140.9909"/>
</g>
<!-- CustomizeFormComponent  -->
<g id="node4" class="node">
<title>CustomizeFormComponent </title>
<polygon fill="#fb8072" stroke="#000000" points="414.5484,-252 239.4516,-252 239.4516,-216 414.5484,-216 414.5484,-252"/>
<text text-anchor="middle" x="327" y="-229.8" font-family="Times,serif" font-size="14.00" fill="#000000">CustomizeFormComponent </text>
</g>
<!-- SharedModule&#45;&gt;CustomizeFormComponent  -->
<g id="edge3" class="edge">
<title>SharedModule&#45;&gt;CustomizeFormComponent </title>
<path fill="none" stroke="#000000" stroke-dasharray="5,2" d="M203.4658,-175C244.6449,-175 296.5753,-175 296.5753,-175 296.5753,-175 296.5753,-205.9775 296.5753,-205.9775"/>
<polygon fill="#000000" stroke="#000000" points="293.0754,-205.9774 296.5753,-215.9775 300.0754,-205.9775 293.0754,-205.9774"/>
</g>
<!-- InputTextComponent  -->
<g id="node5" class="node">
<title>InputTextComponent </title>
<polygon fill="#fb8072" stroke="#000000" points="221.0414,-252 80.9586,-252 80.9586,-216 221.0414,-216 221.0414,-252"/>
<text text-anchor="middle" x="151" y="-229.8" font-family="Times,serif" font-size="14.00" fill="#000000">InputTextComponent </text>
</g>
<!-- SharedModule&#45;&gt;InputTextComponent  -->
<g id="edge4" class="edge">
<title>SharedModule&#45;&gt;InputTextComponent </title>
<path fill="none" stroke="#000000" stroke-dasharray="5,2" d="M154,-187.1061C154,-187.1061 154,-205.991 154,-205.991"/>
<polygon fill="#000000" stroke="#000000" points="150.5001,-205.9909 154,-215.991 157.5001,-205.991 150.5001,-205.9909"/>
</g>
</g>
</svg>
