<?xml version="1.0" encoding="UTF-8" standalone="no"?>
<!DOCTYPE svg PUBLIC "-//W3C//DTD SVG 1.1//EN"
 "http://www.w3.org/Graphics/SVG/1.1/DTD/svg11.dtd">
<!-- Generated by graphviz version 2.40.1 (20161225.0304)
 -->
<!-- Title: dependencies Pages: 1 -->
<svg width="620pt" height="211pt"
 viewBox="0.00 0.00 620.00 211.00" xmlns="http://www.w3.org/2000/svg" xmlns:xlink="http://www.w3.org/1999/xlink">
<g id="graph0" class="graph" transform="scale(1 1) rotate(0) translate(4 207)">
<title>dependencies</title>
<polygon fill="#ffffff" stroke="transparent" points="-4,4 -4,-207 616,-207 616,4 -4,4"/>
<text text-anchor="start" x="285.0091" y="-42.4" font-family="sans-serif" font-weight="bold" font-size="14.00" fill="#000000">Legend</text>
<polygon fill="#ffffb3" stroke="transparent" points="72,-10 72,-30 92,-30 92,-10 72,-10"/>
<text text-anchor="start" x="95.629" y="-15.4" font-family="sans-serif" font-size="14.00" fill="#000000"> &#160;Declarations</text>
<polygon fill="#8dd3c7" stroke="transparent" points="185,-10 185,-30 205,-30 205,-10 185,-10"/>
<text text-anchor="start" x="208.7251" y="-15.4" font-family="sans-serif" font-size="14.00" fill="#000000"> &#160;Module</text>
<polygon fill="#80b1d3" stroke="transparent" points="271,-10 271,-30 291,-30 291,-10 271,-10"/>
<text text-anchor="start" x="294.7812" y="-15.4" font-family="sans-serif" font-size="14.00" fill="#000000"> &#160;Bootstrap</text>
<polygon fill="#fdb462" stroke="transparent" points="368,-10 368,-30 388,-30 388,-10 368,-10"/>
<text text-anchor="start" x="391.6732" y="-15.4" font-family="sans-serif" font-size="14.00" fill="#000000"> &#160;Providers</text>
<polygon fill="#fb8072" stroke="transparent" points="464,-10 464,-30 484,-30 484,-10 464,-10"/>
<text text-anchor="start" x="487.7258" y="-15.4" font-family="sans-serif" font-size="14.00" fill="#000000"> &#160;Exports</text>
<g id="clust1" class="cluster">
<title>cluster_SignupModule</title>
<polygon fill="none" stroke="#000000" stroke-dasharray="1,5" points="8,-70 8,-195 604,-195 604,-70 8,-70"/>
</g>
<g id="clust2" class="cluster">
<title>cluster_SignupModule_declarations</title>
<polygon fill="none" stroke="#000000" points="458,-78 458,-130 596,-130 596,-78 458,-78"/>
</g>
<g id="clust4" class="cluster">
<title>cluster_SignupModule_imports</title>
<polygon fill="none" stroke="#000000" points="174,-78 174,-130 450,-130 450,-78 174,-78"/>
</g>
<g id="clust7" class="cluster">
<title>cluster_SignupModule_providers</title>
<polygon fill="none" stroke="#000000" points="16,-78 16,-130 166,-130 166,-78 16,-78"/>
</g>
<!-- SignupComponent -->
<g id="node1" class="node">
<title>SignupComponent</title>
<polygon fill="#ffffb3" stroke="#000000" points="587.5056,-122 466.4944,-122 466.4944,-86 587.5056,-86 587.5056,-122"/>
<text text-anchor="middle" x="527" y="-99.8" font-family="Times,serif" font-size="14.00" fill="#000000">SignupComponent</text>
</g>
<!-- SignupModule -->
<g id="node2" class="node">
<title>SignupModule</title>
<polygon fill="#8dd3c7" stroke="#000000" points="372.7233,-187 369.7233,-191 348.7233,-191 345.7233,-187 273.2767,-187 273.2767,-151 372.7233,-151 372.7233,-187"/>
<text text-anchor="middle" x="323" y="-164.8" font-family="Times,serif" font-size="14.00" fill="#000000">SignupModule</text>
</g>
<!-- SignupComponent&#45;&gt;SignupModule -->
<g id="edge1" class="edge">
<title>SignupComponent&#45;&gt;SignupModule</title>
<path fill="none" stroke="#000000" d="M527,-122.1061C527,-141.3391 527,-169 527,-169 527,-169 382.6432,-169 382.6432,-169"/>
<polygon fill="#000000" stroke="#000000" points="382.6432,-165.5001 372.6432,-169 382.6431,-172.5001 382.6432,-165.5001"/>
</g>
<!-- SharedModule -->
<g id="node3" class="node">
<title>SharedModule</title>
<polygon fill="#8dd3c7" stroke="#000000" points="442.4231,-122 439.4231,-126 418.4231,-126 415.4231,-122 343.5769,-122 343.5769,-86 442.4231,-86 442.4231,-122"/>
<text text-anchor="middle" x="393" y="-99.8" font-family="Times,serif" font-size="14.00" fill="#000000">SharedModule</text>
</g>
<!-- SharedModule&#45;&gt;SignupModule -->
<g id="edge2" class="edge">
<title>SharedModule&#45;&gt;SignupModule</title>
<path fill="none" stroke="#000000" d="M358.2002,-122.1061C358.2002,-122.1061 358.2002,-140.991 358.2002,-140.991"/>
<polygon fill="#000000" stroke="#000000" points="354.7003,-140.9909 358.2002,-150.991 361.7003,-140.991 354.7003,-140.9909"/>
</g>
<!-- SignupRoutingModule -->
<g id="node4" class="node">
<title>SignupRoutingModule</title>
<polygon fill="#8dd3c7" stroke="#000000" points="326.3412,-122 323.3412,-126 302.3412,-126 299.3412,-122 181.6588,-122 181.6588,-86 326.3412,-86 326.3412,-122"/>
<text text-anchor="middle" x="254" y="-99.8" font-family="Times,serif" font-size="14.00" fill="#000000">SignupRoutingModule</text>
</g>
<!-- SignupRoutingModule&#45;&gt;SignupModule -->
<g id="edge3" class="edge">
<title>SignupRoutingModule&#45;&gt;SignupModule</title>
<path fill="none" stroke="#000000" d="M299.7795,-122.1061C299.7795,-122.1061 299.7795,-140.991 299.7795,-140.991"/>
<polygon fill="#000000" stroke="#000000" points="296.2795,-140.9909 299.7795,-150.991 303.2795,-140.991 296.2795,-140.9909"/>
</g>
<!-- SignupService -->
<g id="node5" class="node">
<title>SignupService</title>
<ellipse fill="#fdb462" stroke="#000000" cx="91" cy="-104" rx="67.2158" ry="18"/>
<text text-anchor="middle" x="91" y="-99.8" font-family="Times,serif" font-size="14.00" fill="#000000">SignupService</text>
</g>
<!-- SignupService&#45;&gt;SignupModule -->
<g id="edge4" class="edge">
<title>SignupService&#45;&gt;SignupModule</title>
<path fill="none" stroke="#000000" d="M91,-122.1061C91,-141.3391 91,-169 91,-169 91,-169 263.2302,-169 263.2302,-169"/>
<polygon fill="#000000" stroke="#000000" points="263.2302,-172.5001 273.2302,-169 263.2301,-165.5001 263.2302,-172.5001"/>
</g>
</g>
</svg>
